<svg width="32" height="32" viewBox="0 0 32 32" xmlns="http://www.w3.org/2000/svg">
<path fill-rule="evenodd" clip-rule="evenodd" d="M16.8186 1.28086C16.3371 0.906379 15.6629 0.906379 15.1814 1.28086L3.1814 10.6142C2.85662 10.8668 2.66666 11.2552 2.66666 11.6667V26.3333C2.66666 27.3942 3.08808 28.4116 3.83823 29.1618C4.58837 29.9119 5.60579 30.3333 6.66666 30.3333H25.3333C26.3942 30.3333 27.4116 29.9119 28.1618 29.1618C28.9119 28.4116 29.3333 27.3942 29.3333 26.3333V11.6667C29.3333 11.2552 29.1434 10.8668 28.8186 10.6142L16.8186 1.28086ZM21.3333 27.6667H25.3333C25.6869 27.6667 26.0261 27.5262 26.2761 27.2761C26.5262 27.0261 26.6667 26.687 26.6667 26.3333V12.3188L16 4.02248L5.33332 12.3188V26.3333C5.33332 26.687 5.4738 27.0261 5.72385 27.2761C5.9739 27.5262 6.31304 27.6667 6.66666 27.6667H10.6667V15.6667C10.6667 14.9303 11.2636 14.3333 12 14.3333H20C20.7364 14.3333 21.3333 14.9303 21.3333 15.6667V27.6667ZM13.3333 27.6667V17H18.6667V27.6667H13.3333Z"/>
</svg>
